<svg width="30" height="19" viewBox="0 0 30 19" fill="none" xmlns="http://www.w3.org/2000/svg">
<path d="M27.5 2.75H18.75V0.25H27.5V2.75ZM29.6575 15.25C29.105 16.8713 27.1213 19 23.2813 19C19.4388 19 16.3263 16.8387 16.3263 11.9062C16.3263 7.01875 19.2325 4.50625 23.1588 4.50625C27.0113 4.50625 29.3638 6.73375 29.8775 10.0388C29.975 10.6713 30.0138 11.5237 29.9963 12.7137H19.9625C20.125 16.7275 24.3163 16.8538 25.6975 15.25H29.6575ZM20.05 10.25H26.2563C26.125 8.31625 24.8363 7.47625 23.16 7.47625C21.3275 7.47625 20.3138 8.43625 20.05 10.25ZM8.0825 18.985H0V0.27625H8.69125C15.5363 0.3775 15.6663 7.08125 12.0913 8.90875C16.4175 10.4838 16.5625 18.985 8.0825 18.985ZM3.75 7.75H8.23C11.365 7.75 11.8625 4 7.84 4H3.75V7.75ZM7.98875 11.5H3.75V15.27H7.92625C11.745 15.27 11.5113 11.5 7.98875 11.5Z" fill="#B6B6B6"/>
</svg>
