<svg width="31" height="29" viewBox="0 0 31 29" fill="none" xmlns="http://www.w3.org/2000/svg">
<path d="M15.5 0C6.94142 0 0 6.6565 0 14.8666C0 21.4351 4.44075 27.0076 10.6007 28.9737C11.3744 29.1112 11.625 28.6503 11.625 28.2589V25.4912C7.31342 26.3906 6.41571 23.7369 6.41571 23.7369C5.71046 22.0186 4.69392 21.5615 4.69392 21.5615C3.28729 20.6385 4.80113 20.6583 4.80113 20.6583C6.35758 20.7624 7.1765 22.1908 7.1765 22.1908C8.55858 24.4629 10.8022 23.8063 11.687 23.426C11.8252 22.4659 12.2269 21.8093 12.6713 21.4388C9.22896 21.061 5.60971 19.7862 5.60971 14.091C5.60971 12.4669 6.2155 11.1413 7.20621 10.1006C7.04604 9.72521 6.51517 8.21254 7.35733 6.16591C7.35733 6.16591 8.65933 5.76699 11.6211 7.68973C12.8572 7.36019 14.1825 7.19542 15.5 7.18922C16.8175 7.19542 18.144 7.36019 19.3827 7.68973C22.342 5.76699 23.6414 6.16591 23.6414 6.16591C24.4848 8.21378 23.954 9.72645 23.7938 10.1006C24.7884 11.1413 25.389 12.4681 25.389 14.091C25.389 19.801 21.7633 21.0585 18.312 21.4264C18.8674 21.8873 19.375 22.7917 19.375 24.1792V28.2589C19.375 28.6541 19.623 29.1186 20.4096 28.9725C26.5644 27.0039 31 21.4326 31 14.8666C31 6.6565 24.0599 0 15.5 0Z" fill="#B6B6B6"/>
</svg>
